<mxfile host="app.diagrams.net" modified="2023-04-13T05:41:42.233Z" agent="Mozilla/5.0 (Windows NT 10.0; Win64; x64) AppleWebKit/537.36 (KHTML, like Gecko) Chrome/111.0.0.0 Safari/537.36" etag="YtIQVJPgp70ug1Giwuyl" version="21.1.7" type="github">
  <diagram name="Страница 1" id="2qUyFJ0XZ6n0xOrkMzpX">
    <mxGraphModel dx="1434" dy="1965" grid="1" gridSize="10" guides="1" tooltips="1" connect="1" arrows="1" fold="1" page="1" pageScale="1" pageWidth="827" pageHeight="1169" math="0" shadow="0">
      <root>
        <mxCell id="0" />
        <mxCell id="1" parent="0" />
        <mxCell id="z162TuJrDwMbsITJCvOz-1" value="" style="rounded=0;whiteSpace=wrap;html=1;" vertex="1" parent="1">
          <mxGeometry x="320" y="200" width="120" height="60" as="geometry" />
        </mxCell>
        <mxCell id="z162TuJrDwMbsITJCvOz-2" value="&lt;p style=&quot;font-size: 20px;&quot; class=&quot;MsoNormal&quot;&gt;&lt;b&gt;&lt;span&gt;&lt;span style=&quot;mso-list:Ignore&quot;&gt;&lt;span style=&quot;font-style: normal; font-variant: normal; font-kerning: auto; font-optical-sizing: auto; font-feature-settings: normal; font-variation-settings: normal; font-stretch: normal; line-height: normal; font-family: &amp;quot;Times New Roman&amp;quot;;&quot;&gt;&lt;br&gt;&lt;/span&gt;&lt;/span&gt;&lt;/span&gt;&lt;span&gt;Разработать функциональную модель программы по определению затрат рабочего&lt;br&gt;времени на выполнения строительных работ.&lt;/span&gt;&lt;/b&gt;&lt;/p&gt;" style="text;whiteSpace=wrap;html=1;align=center;" vertex="1" parent="1">
          <mxGeometry x="110" y="-10" width="560" height="150" as="geometry" />
        </mxCell>
      </root>
    </mxGraphModel>
  </diagram>
</mxfile>
